<svg xmlns="http://www.w3.org/2000/svg" width="163" height="48" fill="none"><rect width="163" height="48" fill="#150C01" rx="5"/><path fill="#fff" d="M69.5234 27.3516h-4.4062L64.1953 30h-2.0547l4.2969-11.375h1.7734L72.5156 30h-2.0625l-.9297-2.6484Zm-3.8515-1.5938h3.2969l-1.6485-4.7187-1.6484 4.7187Zm14.9843.1016c0 1.3073-.2968 2.3515-.8906 3.1328-.5937.776-1.3906 1.164-2.3906 1.164-.9271 0-1.6693-.3046-2.2266-.914V33.25H73.25V21.5469H75l.0781.8593c.5573-.677 1.3151-1.0156 2.2735-1.0156 1.0312 0 1.8385.3854 2.4218 1.1563.5886.7656.8828 1.8307.8828 3.1953v.1172Zm-1.8906-.1641c0-.8437-.1692-1.513-.5078-2.0078-.3333-.4948-.8125-.7422-1.4375-.7422-.776 0-1.3333.3203-1.6719.9609v3.75c.3438.6563.9063.9844 1.6875.9844.6042 0 1.0756-.2422 1.4141-.7265.3438-.4896.5156-1.2292.5156-2.2188Zm10.9063.1641c0 1.3073-.2969 2.3515-.8907 3.1328-.5937.776-1.3906 1.164-2.3906 1.164-.9271 0-1.6692-.3046-2.2265-.914V33.25h-1.8985V21.5469h1.75l.0782.8593c.5572-.677 1.3151-1.0156 2.2734-1.0156 1.0312 0 1.8385.3854 2.4219 1.1563.5885.7656.8828 1.8307.8828 3.1953v.1172Zm-1.8907-.1641c0-.8437-.1692-1.513-.5078-2.0078-.3333-.4948-.8125-.7422-1.4375-.7422-.776 0-1.3333.3203-1.6718.9609v3.75c.3437.6563.9062.9844 1.6875.9844.6041 0 1.0755-.2422 1.414-.7265.3438-.4896.5156-1.2292.5156-2.2188Zm13.6168 1.375c0-.5-.177-.8854-.531-1.1562-.349-.2709-.9816-.5443-1.8982-.8203-.9167-.2761-1.6459-.5834-2.1876-.9219-1.0364-.6511-1.5546-1.5-1.5546-2.5469 0-.9167.3724-1.6719 1.1172-2.2656.75-.5938 1.7213-.8906 2.914-.8906.7912 0 1.4972.1458 2.1172.4374.62.2917 1.107.7084 1.461 1.25.354.5365.531 1.1329.531 1.7891h-1.969c0-.5937-.187-1.0573-.562-1.3906-.37-.3386-.9011-.5078-1.5938-.5078-.6458 0-1.1484.138-1.5078.414-.3542.2761-.5313.6615-.5313 1.1563 0 .4167.1927.7656.5781 1.0469.3855.276 1.0209.5468 1.9063.8125.8855.2604 1.5965.5599 2.1325.8984.537.3333.93.7188 1.18 1.1562.25.4323.375.9402.375 1.5235 0 .9479-.365 1.7031-1.094 2.2656-.724.5573-1.708.8359-2.9529.8359-.8229 0-1.5807-.151-2.2734-.4531-.6875-.3073-1.224-.7291-1.6094-1.2656-.3802-.5365-.5703-1.1615-.5703-1.875h1.9766c0 .6458.2135 1.1458.6406 1.5.4271.3542 1.039.5313 1.8359.5313.6879 0 1.2029-.1381 1.5469-.4141.349-.2813.523-.6511.523-1.1094Zm5.907-7.5781v2.0547h1.492v1.4062h-1.492v4.7188c0 .3229.062.5573.187.7031.13.1406.36.2109.688.2109.218 0 .44-.026.664-.0781v1.4688c-.433.1198-.849.1796-1.25.1796-1.459 0-2.188-.8046-2.188-2.414v-4.7891h-1.39v-1.4062h1.39v-2.0547h1.899Zm2.359 6.2031c0-.8281.164-1.5729.492-2.2344.328-.6666.789-1.177 1.383-1.5312.594-.3594 1.276-.5391 2.047-.5391 1.141 0 2.065.3672 2.773 1.1016.714.7344 1.099 1.7083 1.157 2.9219l.007.4453c0 .8333-.161 1.5781-.484 2.2344-.318.6562-.776 1.164-1.375 1.5234-.594.3594-1.281.539-2.062.539-1.193 0-2.149-.3958-2.868-1.1874-.713-.7969-1.07-1.8568-1.07-3.1797v-.0938Zm1.898.1641c0 .8698.18 1.5521.54 2.0468.359.4896.859.7344 1.5.7344.64 0 1.138-.25 1.492-.75.359-.5.539-1.2317.539-2.1953 0-.8542-.185-1.5312-.555-2.0312-.364-.5-.862-.75-1.492-.75-.62 0-1.112.2474-1.477.7421-.364.4896-.547 1.224-.547 2.2032Zm11.993-2.5782c-.25-.0416-.508-.0624-.774-.0624-.87 0-1.455.3333-1.758 1V30h-1.898v-8.4531h1.813l.046.9453c.459-.7344 1.094-1.1016 1.907-1.1016.27 0 .494.0365.671.1094l-.007 1.7812Zm4.765 6.875c-1.203 0-2.179-.3776-2.929-1.1328-.745-.7604-1.118-1.7708-1.118-3.0312v-.2344c0-.8437.162-1.5963.485-2.2578.328-.6667.786-1.1849 1.375-1.5547.588-.3698 1.245-.5547 1.969-.5547 1.151 0 2.039.3672 2.664 1.1016.63.7344.945 1.7734.945 3.1172v.7656h-5.523c.057.6979.289 1.25.695 1.6562.411.4063.927.6094 1.547.6094.869 0 1.578-.3515 2.125-1.0547l1.023.9766c-.338.5052-.792.8984-1.359 1.1797-.563.276-1.196.414-1.899.414Zm-.226-7.2421c-.521 0-.943.1823-1.266.5468-.318.3646-.521.8724-.609 1.5235h3.617v-.1406c-.042-.6355-.211-1.1146-.508-1.4376-.297-.3281-.708-.4921-1.234-.4921Z"/><g clip-path="url(#a)"><path fill="#D6D6D8" d="M44.8716 15.1197c.8282-1.0009 1.4102-2.3604 1.381-3.7451-.005-.2325-.2171-.4052-.447-.3701-1.2151.1857-2.5733.9467-3.414 1.9309-.7749.896-1.4626 2.2883-1.4109 3.668.0078.2079.1834.3736.3914.3677 1.3411-.038 2.6651-.841 3.4995-1.8514Z"/><path fill="#C2C2C4" d="M42.0272 16.6034c-.0802-2.139 1.5336-4.6373 4.153-5.4428-.0822-.113-.2244-.179-.3745-.1561-1.215.1857-2.5733.9466-3.414 1.9309-.7749.896-1.4626 2.2883-1.4109 3.668.0078.2079.1835.3736.3914.3677.2601-.0074.5194-.0438.7747-.1046-.0704-.0667-.1159-.1597-.1197-.2631Z"/><path fill="#D6D6D8" d="M51.3444 29.9265c-.8419-.4239-3.1654-1.8867-3.1941-5.1307-.0246-2.6555 1.7375-4.1996 2.4871-4.7387.1779-.1281.217-.3786.0818-.5511-.6229-.7939-1.3511-1.3032-2.0507-1.6333.0004-.0001.0009-.0002.0013-.0002-.0906-.0429-.2457-.1108-.3699-.1597-3.5201-1.3857-5.7385.7383-7.0824.7383-1.0288 0-2.6165-1.1626-4.2987-1.1308-2.2105.0321-4.2465 1.2858-5.3864 3.2643-1.7488 3.0354-1.1721 7.1848.1905 10.4187 0 0-.0001 0-.0001.0001.0349.0827.0904.2114.1368.3154 0-.0001 0-.0002.0001-.0003.3947.8865.8466 1.6965 1.3227 2.3851 1.0931 1.5801 2.3972 3.3601 4.1108 3.2946 1.6492-.0654 2.2727-1.0663 4.2657-1.0663 1.9918 0 2.5537 1.0663 4.2975 1.0346 1.7752-.0337 2.8993-1.6124 3.985-3.2.9555-1.395 1.4827-2.7565 1.6939-3.3695.063-.1827-.0182-.3836-.1909-.4705Z"/><path fill="#C2C2C4" d="M34.2287 33.7037c-.4761-.6886-.928-1.4986-1.3227-2.3851-.0001.0001-.0001.0002-.0001.0003-.0463-.1039-.1014-.2316-.1368-.3154l.0001-.0001c-1.3541-3.2139-1.9455-7.3726-.1904-10.4187 1.0527-1.8271 2.8699-3.0354 4.8828-3.2349-.1795-.0216-.3605-.0328-.5428-.0294-2.2104.0321-4.2465 1.2858-5.3863 3.2643-1.7488 3.0354-1.1721 7.1848.1904 10.4187l-.0001.0001c.0349.0827.0905.2114.1368.3154 0-.0001.0001-.0002.0001-.0003.3947.8865.8466 1.6965 1.3226 2.3851 1.0932 1.5801 2.3973 3.3601 4.1108 3.2947.1686-.0068.326-.0236.4758-.0478-1.4376-.2915-2.5718-1.8471-3.5402-3.2469Z"/></g><defs><clipPath id="a"><path fill="#fff" d="M28 11h26v26H28z"/></clipPath></defs></svg>