<svg xmlns="http://www.w3.org/2000/svg" width="21" height="21" fill="none"><path fill="#4A7AFF" d="M21 10.5C21 16.2991 16.2991 21 10.5 21 4.70093 21 0 16.2991 0 10.5 0 4.70094 4.70093 0 10.5 0 16.2991 0 21 4.70094 21 10.5Z"/><path fill="#0053BF" d="M10.9608 20.9894C16.546 20.7483 21 16.1446 21 10.5001c0-.0408-.0011-.0815-.0016-.1224L13.71 3.08911 5.91699 11.2346l4.32991 4.3298-1.99651 2.7146 2.71041 2.7104Z"/><path fill="#fff" d="M13.7099 3.08893v2.37762s-2.7298-.39622-2.7298 1.36489v1.76111h2.4656l-.3081 2.68575h-2.1575v7.0005H8.25031v-7.0005l-2.33356-.0441V8.59255h2.2895V6.56724s-.15108-3.01288 2.81795-3.56627c1.2328-.22992 2.6857.08796 2.6857.08796Z"/><path fill="#DCE1EB" d="M13.7099 5.46655V3.08893s-1.4528-.31788-2.6857-.08796c-.1926.03588-.3717.08235-.5388.1373V18.2788h.4948v-7.0005h2.1573l.3082-2.68575h-2.4655V6.83144c0-1.76111 2.7297-1.36489 2.7297-1.36489Z"/></svg>