<svg xmlns="http://www.w3.org/2000/svg" width="21" height="21" fill="none"><g clip-path="url(#a)"><path fill="#55ACEE" d="M10.5009 20.9998c5.7989 0 10.4999-4.701 10.4999-10.4999C21.0008 4.70097 16.2998 0 10.5009 0 4.70197 0 .00100708 4.70097.00100708 10.4999c0 5.7989 4.70096292 10.4999 10.49989292 10.4999Z"/><path fill="#F1F2F2" d="M16.9317 7.54607c-.45.19952-.934.33447-1.4416.39474.5182-.31051.916-.80184 1.1037-1.38824-.4849.28768-1.0223.49638-1.5937.60886-.4579-.48758-1.1102-.79229-1.8324-.79229-1.3859 0-2.5098 1.12396-2.5098 2.50977 0 .19672.0223.3882.0653.572-2.08583-.10463-3.93527-1.10375-5.17321-2.62264-.216.3706-.3399.80203-.3399 1.26191 0 .87053.4434 1.63905 1.11647 2.08902-.41122-.0129-.79847-.1258-1.13669-.31427-.00019.01067-.00019.02134-.00019.03182 0 1.21605.86548 2.23035 2.0134 2.46075-.21038.0576-.43255.0881-.66109.0881-.16209 0-.31912-.0155-.47223-.0447.31931.9969 1.246 1.7225 2.3445 1.7429-.85911.6733-1.94115 1.0744-3.11733 1.0744-.20214 0-.40241-.0118-.59838-.0352 1.11011.7124 2.42966 1.1277 3.84692 1.1277 4.61633 0 7.14093-3.8243 7.14093-7.14111 0-.10875-.0024-.21712-.0073-.32455.4908-.35376.9162-.79567 1.2526-1.29897Z"/></g><defs><clipPath id="a"><path fill="#fff" d="M0 0h21v21H0z"/></clipPath></defs></svg>