<svg xmlns="http://www.w3.org/2000/svg" width="52" height="52" fill="none"><path fill="#FFBB54" d="M26.2825.0020752V51.9979C40.5119 51.8472 52 40.2649 52 26 52 11.735 40.5119.152739 26.2825.0020752Z"/><path fill="#FFD45A" d="M26.2825.00209256C26.1883.00104628 26.0942 0 26 0 11.6409 0 0 11.6409 0 26s11.6409 26 26 26c.0942 0 .1883-.001.2825-.0021C38.1996 51.8179 47.8149 40.2472 47.8149 26c0-14.2472-9.6153-25.817948-21.5324-25.99790744Z"/><path fill="#B74147" d="m36.3058 22.8821-10.1729 13h10.4512c1.7923-2.284 2.8606-5.1634 2.8606-8.2918v-1.5694c0-1.7263-1.4125-3.1388-3.1389-3.1388Z"/><path fill="#FF3C1F" d="M15.6942 22.8821c-1.7264 0-3.1389 1.4125-3.1389 3.1388v1.5694c0 3.1284 1.0683 6.0078 2.8606 8.2918l19.5706-1.7075c.8401-1.9461 1.3193-4.1925 1.3193-6.5843v-1.5691l-20.6116-3.1391Z"/><path fill="#FA4087" d="m34.9865 34.1746-8.8536 6.8594c4.2426-.0408 8.0145-2.0466 10.4512-5.1519-.4823-.6142-1.0169-1.1865-1.5976-1.7075Z"/><path fill="#FA71A3" d="M34.9865 34.1745c-1.7452 4.0481-5.0514 6.7966-8.8536 6.8594-.0439.0011-.0889.0011-.1329.0011-4.297 0-8.1222-2.0152-10.5841-5.153C17.8778 32.7453 21.703 30.7291 26 30.7291c3.4548 0 6.6052 1.3037 8.9865 3.4454Z"/><path fill="#FFF7DF" d="m33.167 22.8821-1.5694 4.7082h3.1388c.8632 0 1.5694-.7062 1.5694-1.5694v-3.1388H33.167Z"/><path fill="#fff" d="M33.167 22.8821v3.1388c0 .8632-.7062 1.5694-1.5694 1.5694h-14.334c-.8632 0-1.5694-.7062-1.5694-1.5694v-3.1388H33.167Z"/><path fill="#FFBB54" d="M26.7847 44.9589h-1.5694c-.4335 0-.7847-.3513-.7847-.7847 0-.4333.3512-.7847.7847-.7847h1.5694c.4335 0 .7847.3514.7847.7847 0 .4334-.3512.7847-.7847.7847Z"/><path fill="#474867" d="M34.7364 11.8961c-.8631 0-1.5694.7063-1.5694 1.5694v4.7083c0 .8632.7063 1.5694 1.5694 1.5694.8632 0 1.5695-.7062 1.5695-1.5694v-4.7083c0-.8631-.7063-1.5694-1.5695-1.5694ZM17.2636 11.8971c-.8632 0-1.5694.7062-1.5694 1.5694v4.7083c0 .8631.7062 1.5694 1.5694 1.5694.8631 0 1.5694-.7063 1.5694-1.5694v-4.7083c0-.8632-.7063-1.5694-1.5694-1.5694Z"/></svg>