<svg xmlns="http://www.w3.org/2000/svg" width="88" height="88" fill="none"><circle cx="44" cy="44" r="44" fill="#E64D2E" opacity=".08"/><g clip-path="url(#a)"><path fill="#FF6A4D" d="M41.9805 22c-2.084 0-3.7793 1.6953-3.7793 3.7793v1.3437l2.5195 1.2598h2.5195l2.5196-1.2598v-1.3437c0-2.084-1.6953-3.7793-3.7793-3.7793Z"/><path fill="#E64D2E" d="M45.7598 27.123v-1.3437c0-2.084-1.6953-3.7793-3.7793-3.7793v6.3828h1.2597l2.5196-1.2598Z"/><path fill="#474F54" d="M23 59.9609C23.5838 62.8359 26.2515 65 29.2988 65s5.7991-2.1641 6.3828-5.0391l-2.7368-1.2597h-8.1959L23 59.9609Z"/><path fill="#F2F9FF" d="M29.2988 62.4805c-2.084 0-3.7793-1.6953-3.7793-3.7793s1.6953-3.7793 3.7793-3.7793 3.8633 1.6953 3.8633 3.7793-1.7793 3.7793-3.8633 3.7793Z"/><path fill="#DC780B" d="M35.6816 37.2852h-7.6425l-2.5196 2.5195v7.5586l2.5196 1.2597h7.6425l3.7793-1.2597v-6.8028l-1.2597-.7558-2.5196-2.5195Z"/><path fill="#FABE2C" d="M25.5195 34.7656v5.0391h12.6817l1.2597-.6522-1.2597-.6076v-3.7793H25.5195Z"/><path fill="#FF6A4D" d="M43.2402 59.9609H23v-1.2597c0-4.8703 4.0321-8.8184 8.9023-8.8184l2.0997-1.2598h11.7578v9.2383l-2.5196 2.0996Z"/><path fill="#32393F" d="M23 47.3633h17.7207v2.5195H23v-2.5195Z"/><path fill="#575F64" d="M49.5391 53.7376v4.7367l-1.2598 1.4866h-5.0391V49.8828h-2.5195c-1.3857 0-2.5195-1.1338-2.5195-2.5195v-6.2988h7.5586v3.7793c1.3857 0 2.5195 1.1337 2.5195 2.5195v5.039l1.2598 1.3353Z"/><path fill="#474F54" d="M49.5391 53.7376v4.7367l-1.2598 1.4866h-5.0391V49.8828h-1.2597v-8.8183h3.7793v3.7793c1.3857 0 2.5195 1.1337 2.5195 2.5195v5.039l1.2598 1.3353Z"/><path fill="#FF6A4D" d="M45.7598 39.8047v-1.2598c0-2.084-1.6953-3.7793-3.7793-3.7793s-3.7793 1.6953-3.7793 3.7793v2.5196c0 2.0872 1.692 3.7793 3.7793 3.7793h10.1621c2.0872 0 3.7793-1.6921 3.7793-3.7793v-1.2598H45.7598Z"/><path fill="#E64D2E" d="M55.9219 41.0645v-1.2598H45.7598v-1.2598c0-2.084-1.6953-3.7793-3.7793-3.7793v10.0782h10.1621c2.0872 0 3.7793-1.6921 3.7793-3.7793Z"/><path fill="#FFE1BA" d="M43.2402 28.3828h-2.5195l-2.5195 1.2598v1.2597c0 2.084 1.6953 3.8633 3.7793 3.8633s3.7793-1.7793 3.7793-3.8633v-1.2597l-2.5196-1.2598Z"/><path fill="#FFBFAB" d="M45.7598 30.9023v-1.2597l-2.5196-1.2598h-1.2597v6.3828c2.084 0 3.7793-1.7793 3.7793-3.8633Z"/><path fill="#474F54" d="M41.9805 27.123h-3.7793v2.5196h10.0781V27.123h-6.2988Z"/><path fill="#32393F" d="M41.9805 27.123h6.2988v2.5196h-6.2988V27.123Z"/><path fill="#E64D2E" d="M59.3936 47.645c-.139-.9806-.4146-2.912-.9645-6.759l-5.0268-2.3411V48.623c0 1.9874-1.712 3.7793-3.8632 3.7793h-1.2598v7.5586h15.2012L66 58.7012v-2.5196c0-4.0302-2.7803-7.5438-6.6064-8.5366Z"/><path fill="#FF6A4D" d="M60.9609 42.3242h-3.7793c-2.0839 0-3.7793-1.6953-3.7793-3.7793s1.6954-3.7793 3.7793-3.7793h3.7793v7.5586Z"/><path fill="#32393F" d="m60.0798 52.4407-.3664 1.3998-2.1291-1.0458c-2.4296.8743-4.182 3.1795-4.182 5.9065 0 3.473 2.8259 6.2988 6.2989 6.2988S66 62.1742 66 58.7012c0-3.3433-2.6264-6.0603-5.9202-6.2605Z"/><path fill="#DFE7F4" d="M59.7012 54.9219c-2.084 0-3.7793 1.6953-3.7793 3.7793s1.6953 3.7793 3.7793 3.7793 3.7793-1.6953 3.7793-3.7793-1.6953-3.7793-3.7793-3.7793Z"/><path fill="#C7CFE1" d="m60.9487 58.5228-.8689-6.0822c-.1279-.0077-.249-.0383-.3786-.0383-.746 0-1.4522.1532-2.1168.3923l.8693 6.085 2.495-.3568Z"/></g><defs><clipPath id="a"><path fill="#fff" d="M23 22h43v43H23z"/></clipPath></defs></svg>