<svg xmlns="http://www.w3.org/2000/svg" width="179" height="48" fill="none"><rect width="177.5" height="46.5" x=".75" y=".75" stroke="#150C01" stroke-width="1.5" opacity=".1" rx="4.25"/><path fill="#150C01" d="M72.875 28.5234c-.4115.5365-.9818.9427-1.7109 1.2188-.7292.276-1.5573.414-2.4844.414-.9531 0-1.7969-.2161-2.5313-.6484-.7343-.4323-1.302-1.0495-1.7031-1.8516-.3958-.8072-.6015-1.7473-.6172-2.8203v-.8906c0-1.7187.4115-3.0599 1.2344-4.0234.8229-.9688 1.9714-1.4531 3.4453-1.4531 1.2656 0 2.2708.3124 3.0156.9374.7448.625 1.1927 1.5261 1.3438 2.7032h-1.9375c-.2188-1.3698-1.013-2.0547-2.3828-2.0547-.8854 0-1.5599.3203-2.0235.9609-.4583.6354-.6953 1.5703-.7109 2.8047v.875c0 1.2292.2578 2.1849.7734 2.8672.5209.6771 1.2422 1.0156 2.1641 1.0156 1.0104 0 1.7292-.2291 2.1562-.6875v-2.2265h-2.3437v-1.5h4.3125v4.3593Zm1.6328-2.8281c0-.8281.1641-1.5729.4922-2.2344.3281-.6666.7891-1.177 1.3828-1.5312.5938-.3594 1.2761-.5391 2.0469-.5391 1.1406 0 2.0651.3672 2.7734 1.1016.7136.7344 1.099 1.7083 1.1563 2.9219l.0078.4453c0 .8333-.1615 1.5781-.4844 2.2344-.3177.6562-.776 1.164-1.375 1.5234-.5937.3594-1.2812.539-2.0625.539-1.1927 0-2.1484-.3958-2.8672-1.1874-.7135-.7969-1.0703-1.8568-1.0703-3.1797v-.0938Zm1.8984.1641c0 .8698.1797 1.5521.5391 2.0468.3594.4896.8594.7344 1.5.7344s1.138-.25 1.4922-.75c.3594-.5.5391-1.2317.5391-2.1953 0-.8542-.1849-1.5312-.5547-2.0312-.3646-.5-.862-.75-1.4922-.75-.6198 0-1.112.2474-1.4766.7421-.3646.4896-.5469 1.224-.5469 2.2032Zm7.211-.1641c0-.8281.164-1.5729.4922-2.2344.3281-.6666.789-1.177 1.3828-1.5312.5937-.3594 1.276-.5391 2.0469-.5391 1.1406 0 2.0651.3672 2.7734 1.1016.7135.7344 1.099 1.7083 1.1563 2.9219l.0078.4453c0 .8333-.1615 1.5781-.4844 2.2344-.3177.6562-.7761 1.164-1.375 1.5234-.5938.3594-1.2813.539-2.0625.539-1.1927 0-2.1485-.3958-2.8672-1.1874-.7135-.7969-1.0703-1.8568-1.0703-3.1797v-.0938Zm1.8984.1641c0 .8698.1797 1.5521.5391 2.0468.3594.4896.8594.7344 1.5.7344s1.138-.25 1.4922-.75c.3593-.5.539-1.2317.539-2.1953 0-.8542-.1849-1.5312-.5547-2.0312-.3645-.5-.8619-.75-1.4921-.75-.6198 0-1.112.2474-1.4766.7421-.3646.4896-.5469 1.224-.5469 2.2032Zm7.2344-.1485c0-1.3125.3073-2.3593.9219-3.1406.6198-.7864 1.4401-1.1797 2.4609-1.1797.9636 0 1.7214.336 2.2734 1.0078l.086-.8515h1.7108v8.1953c0 1.1094-.3462 1.9844-1.0389 2.625-.6875.6406-1.6172.9609-2.7891.9609-.6198 0-1.2266-.1302-1.8203-.3906-.5886-.2552-1.0365-.5911-1.3438-1.0078l.8985-1.1406c.5833.6927 1.3021 1.039 2.1562 1.039.6302 0 1.1276-.1719 1.4922-.5156.3646-.3385.5469-.8385.5469-1.5v-.5703c-.5469.6094-1.2761.914-2.1875.914-.9896 0-1.7995-.3932-2.4297-1.1796-.625-.7865-.9375-1.875-.9375-3.2657Zm1.8906.1641c0 .849.1719 1.5182.5156 2.0078.349.4844.8308.7266 1.4454.7266.7656 0 1.3333-.3282 1.7031-.9844v-3.7188c-.3594-.6406-.9219-.9609-1.6875-.9609-.625 0-1.112.2474-1.461.7422-.3437.4948-.5156 1.224-.5156 2.1875ZM104.18 30h-1.899V18h1.899v12Zm5.797.1562c-1.204 0-2.18-.3776-2.93-1.1328-.745-.7604-1.117-1.7708-1.117-3.0312v-.2344c0-.8437.161-1.5963.484-2.2578.328-.6667.787-1.1849 1.375-1.5547.589-.3698 1.245-.5547 1.969-.5547 1.151 0 2.039.3672 2.664 1.1016.63.7344.945 1.7734.945 3.1172v.7656h-5.523c.057.6979.289 1.25.695 1.6562.412.4063.927.6094 1.547.6094.87 0 1.578-.3515 2.125-1.0547l1.023.9766c-.338.5052-.791.8984-1.359 1.1797-.563.276-1.195.414-1.898.414Zm-.227-7.2421c-.521 0-.943.1823-1.266.5468-.317.3646-.52.8724-.609 1.5235h3.617v-.1406c-.041-.6355-.211-1.1146-.508-1.4376-.296-.3281-.708-.4921-1.234-.4921Zm11.242 2.8593V30h-1.976V18.625h4.351c1.271 0 2.279.3307 3.024.9922.75.6614 1.125 1.5364 1.125 2.625 0 1.1146-.368 1.9818-1.102 2.6016-.729.6197-1.753.9296-3.07.9296h-2.352Zm0-1.5859h2.375c.703 0 1.24-.1641 1.61-.4922.369-.3333.554-.8125.554-1.4375 0-.6146-.187-1.1042-.562-1.4687-.375-.3698-.891-.5599-1.547-.5703h-2.43v3.9687ZM131.086 30h-1.898V18h1.898v12Zm7.125 0c-.083-.1615-.156-.4245-.219-.7891-.604.6302-1.344.9453-2.219.9453-.849 0-1.541-.2421-2.078-.7265-.536-.4844-.804-1.0833-.804-1.7969 0-.901.333-1.5911 1-2.0703.671-.4844 1.63-.7266 2.875-.7266h1.164v-.5547c0-.4374-.123-.7864-.368-1.0468-.244-.2656-.617-.3985-1.117-.3985-.432 0-.786.1094-1.062.3282-.276.2135-.414.4869-.414.8203h-1.899c0-.4636.154-.8959.461-1.2969.308-.4063.724-.724 1.25-.9531.531-.2292 1.123-.3438 1.774-.3438.989 0 1.778.25 2.367.75.588.4948.89 1.1927.906 2.0938v3.8125c0 .7604.107 1.3672.32 1.8203V30h-1.937Zm-2.086-1.3672c.375 0 .727-.0911 1.055-.2734.333-.1823.583-.4271.75-.7344v-1.5938h-1.024c-.703 0-1.232.1224-1.586.3672-.354.2448-.531.5912-.531 1.0391 0 .3646.12.6563.359.875.245.2135.571.3203.977.3203Zm8.523-1.3516 1.719-5.7343h2.024l-3.36 9.7343c-.515 1.4219-1.39 2.1329-2.625 2.1329-.276 0-.58-.0469-.914-.1407v-1.4687l.36.0234c.479 0 .838-.0885 1.078-.2656.244-.1719.437-.4635.578-.875l.273-.7266-2.969-8.414h2.047l1.789 5.7343Z"/><g clip-path="url(#a)"><path fill="#9DC6FB" d="M47.4248 24.0001 31.4113 11.5775c-.6132.4795-1.0262 1.2244-1.0262 2.1125v20.6202c0 .8881.413 1.633 1.0262 2.1119l16.0135-12.422Z"/><path fill="#FFE07D" d="m52.2717 21.674-3.8747-2.2373-3.3961.4247L43.8344 24l.5924 3.9623 3.9702.6004 3.8747-2.2366c1.7909-1.0339 1.7909-3.6182 0-4.6521Z"/><path fill="#DD5790" d="M48.3967 19.4368 34.414 11.3639c-1.0217-.5895-2.1886-.4226-3.0025.2135l12.4226 12.4227 4.5626-4.5633Z"/><path fill="#95D6A4" d="m48.3967 28.5628-4.5626-4.5627-12.4226 12.422c.8139.6369 1.9808.8037 3.0025.2142l13.9827-8.0735Z"/><path fill="#80B4FB" d="M33.4125 13.69c0-.1805.0167-.3547.0491-.5221l-2.0502-1.5904c-.6131.4793-1.0263 1.2242-1.0263 2.1125v20.6202c0 .8877.4133 1.6327 1.0263 2.1119l2.0502-1.5903c-.0324-.1674-.0491-.3417-.0491-.5216V13.69Z"/><path fill="#DA387D" d="m34.5922 11.4661-.1779-.1025c-1.0217-.5891-2.1888-.4222-3.0028.2139l2.0031 2.0031c.0324-.8401.4363-1.5438 1.0238-2.0031h.0005c.0497-.0387.101-.0763.1533-.1114Z"/><path fill="#78C2A4" d="m34.4389 36.4221.0005-.001-.001.001c-.588-.4593-.9914-1.1635-1.0238-2.0031l-2.0031 2.0031c.814.6367 1.9811.8035 3.0028.214l.1779-.1026c-.0523-.035-.1036-.0727-.1533-.1114Z"/></g><defs><clipPath id="a"><path fill="#fff" d="M29 37h26V11H29z"/></clipPath></defs></svg>