<svg xmlns="http://www.w3.org/2000/svg" width="45" height="45" fill="none"><path fill="url(#a)" d="M3.94257 6.13601c-.42259-.87354-.05714-1.92423.8164-2.34673.28512-.13791.58876-.1905.88363-.17031.2781-.61826.76636-1.14602 1.4243-1.46432 1.48724-.71957 3.2762-.09718 3.9958 1.39006.1739.35948.2688.7366.2925 1.11187.6639-.02212 1.31.33955 1.618.9759.4166.86108.0564 1.89676-.8048 2.31338-.782.37835-1.7065.11438-2.18197-.58201-.0999.06408-.20419.12342-.31374.17653-1.17579.56885-2.53969.29838-3.41516-.57454-.86704.39889-1.89737.03309-2.31496-.82983Z"/><path fill="url(#b)" d="M4.38438 2.93673c.81096 0 1.46837-.65741 1.46837-1.46836C5.85275.65741 5.19534 0 4.38438 0c-.81095 0-1.46836.65741-1.46836 1.46837 0 .81095.65741 1.46836 1.46836 1.46836Z"/><path fill="url(#c)" d="M13.1075 14.7783H9.56603c-.50117 0-.90743-.4063-.90743-.9075V8.222c0-.50116.40626-.90742.90743-.90742h3.54147c.5012 0 .9074.40626.9074.90742v5.6488c.0001.5012-.4061.9075-.9074.9075Z"/><path fill="url(#d)" d="M11.9855 30.885H1.41006v13.5718H11.9855V30.885Z"/><path fill="url(#e)" d="M12.4261 33.7929H1.43378c-.450422 0-.772854-.4349-.642143-.866l1.090803-3.5931c.08586-.2828.34658-.476.64214-.476h9.90162v4.9351h-.0001Z"/><path fill="url(#f)" d="M43.5355 30.885H32.9601v13.5718h10.5754V30.885Z"/><path fill="url(#g)" d="m43.5354 40.901-7.1053-7.1055h-3.47v10.661h10.5753V40.901Z"/><path fill="url(#h)" d="M32.5194 33.7929h10.9923c.4504 0 .7729-.4349.6422-.866l-1.0908-3.5931c-.0859-.2828-.3466-.476-.6422-.476h-9.9015v4.9351Z"/><path fill="url(#i)" d="M36.4358 16.3768v28.0794H8.51321V16.3768L22.4727 2.69043 36.4358 16.3768Z"/><path fill="url(#j)" d="M8.51321 16.3768v1.6087L34.9839 44.4562h1.4519V16.3768L22.4727 2.69043 8.51321 16.3768Z"/><path fill="url(#k)" d="M36.4358 24.863v19.5935h-8.8155L8.51321 25.3494v-.4864H36.4358Z"/><path fill="url(#l)" d="M32.1214 44.4564H18.4653l-7.5068-7.5067c-.3305-.2143-.5504-.5861-.5504-1.0078v-6.0418c0-.6619.5389-1.2008 1.2008-1.2008h4.3558c.4227 0 .7945.22 1.0087.5504l-.0326.0259 15.1806 15.1808Z"/><path fill="#503837" d="M15.9647 36.4388h-4.3554c-.2747 0-.4973-.2226-.4973-.4973v-6.0409c0-.2747.2227-.4973.4973-.4973h4.3554c.2747 0 .4973.2227.4973.4973v6.0409c.0001.2747-.2226.4973-.4973.4973Z"/><path fill="#fff" d="M15.9647 37.1428h-4.3554c-.6623 0-1.2012-.5389-1.2012-1.2012v-6.0409c0-.6623.5389-1.2012 1.2012-1.2012h4.3554c.6623 0 1.2012.5389 1.2012 1.2012v6.0409c.0001.6623-.5388 1.2012-1.2012 1.2012Zm-4.1487-1.408h3.9421v-5.6275H11.816v5.6275Z"/><path fill="url(#m)" d="M36.4368 31.1914v13.265h-.4285l-7.5068-7.5067c-.3315-.2143-.5515-.5861-.5515-1.0078v-6.0418c0-.6619.539-1.2008 1.2018-1.2008h4.3548c.4227 0 .7945.22 1.0087.5504l.0173.0136-.0116.0125 1.9158 1.9156Z"/><path fill="#503837" d="M33.507 36.4388h-4.3554c-.2747 0-.4973-.2226-.4973-.4973v-6.0409c0-.2747.2226-.4973.4973-.4973h4.3554c.2747 0 .4973.2227.4973.4973v6.0409c.0001.2747-.2226.4973-.4973.4973Z"/><path fill="#fff" d="M33.507 37.1428h-4.3554c-.6623 0-1.2012-.5389-1.2012-1.2012v-6.0409c0-.6623.5389-1.2012 1.2012-1.2012h4.3554c.6624 0 1.2013.5389 1.2013 1.2012v6.0409c0 .6623-.5389 1.2012-1.2013 1.2012Zm-4.1488-1.408h3.942v-5.6275h-3.942v5.6275Z"/><path fill="#816965" d="M19.5651 44.4561V29.2019c0-.6729.5454-1.2183 1.2182-1.2183h3.3829c.6728 0 1.2183.5454 1.2183 1.2183v15.2542h-5.8194Z"/><path fill="#503837" d="M26.1049 44.4561h-1.4411V29.6173c0-.5021-.4108-.9131-.913-.9131h-2.5522c-.5043 0-.9131.4088-.9131.9131v14.8388h-1.441V28.6643c0-.7738.6273-1.4011 1.4012-1.4011h4.458c.7738 0 1.4011.6273 1.4011 1.4011v15.7918h.0001Z"/><path fill="#fff" d="M21.4425 34.3664c.3629 0 .657-.2941.657-.6569 0-.3629-.2941-.657-.657-.657-.3628 0-.6569.2941-.6569.657 0 .3628.2941.6569.6569.6569Z"/><path fill="#654E48" d="M36.4368 40.6117H8.51236v3.8442H36.4368v-3.8442Z"/><path fill="url(#n)" d="M8.20659 42.9539c0 .5305-.10033 1.0368-.28363 1.5021H.283631C.100337 43.9907 0 43.4844 0 42.9539c0-.5166.0952459-1.0105.269673-1.4655.589822-1.5431 2.083907-2.6378 3.833707-2.6378 1.74981 0 3.24381 1.0947 3.83372 2.6378.17434.4551.26949.949.26949 1.4655Z"/><path fill="url(#o)" d="M10.8526 43.3665c0 .3848-.0728.752-.2057 1.0896H5.10515c-.1329-.3375-.20567-.7048-.20567-1.0896 0-.3748.06908-.733.19567-1.0631.42786-1.1194 1.51164-1.9135 2.781-1.9135s2.35315.7941 2.78105 1.9135c.1263.33.1954.6883.1954 1.0631Z"/><path fill="url(#p)" d="M44.9455 42.7051c0 .6184-.117 1.2086-.3306 1.751h-8.9052c-.2135-.5423-.3306-1.1326-.3306-1.751 0-.6022.1111-1.1778.3144-1.7083.6876-1.7988 2.4291-3.0749 4.4688-3.0749s3.7812 1.2761 4.4688 3.0749c.2033.5305.3144 1.1061.3144 1.7083Z"/><path fill="url(#q)" d="M36.4358 20.3937v14.8822L18.4744 17.3136c-.3526-.2123-.5896-.5975-.5896-1.0381V12.901c0-2.5293 2.0587-4.58704 4.588-4.58704 1.3695 0 2.6006.60457 3.4422 1.55896L36.4358 20.3937Z"/><path fill="#654E48" d="M34.3894 18.9458H10.9179c-.5597 0-1.01498.4553-1.01498 1.015v4.5062h.70498v-4.5062c0-.171.1391-.31.31-.31h1.404v4.8161h.705v-4.8161h2.0944v4.8161h.705v-4.8161h2.0945v4.8161h.705v-4.8161h2.0944v4.8161h.705v-4.8161h2.0945v4.8161h.705v-4.8161h2.0945v4.8161h.705v-4.8161h2.0944v4.8161h.705v-4.8161h2.0945v4.8161h.705v-4.8161h1.766c.1709 0 .31.139.31.31v4.5062h.705v-4.5062c.0003-.5597-.455-1.015-1.0147-1.015Z"/><path fill="url(#r)" d="M37.0145 23.7355v2.2604c0 .3359-.2723.6083-.6082.6083H8.5392c-.33595 0-.60826-.2724-.60826-.6083v-2.2604c0-.336.27231-.6083.60826-.6083h27.8671c.3359 0 .6082.2723.6082.6083Z"/><path fill="url(#s)" d="M41.435 18.8248 23.4056.789347c-.5139-.513889-1.3472-.513889-1.8611 0L3.51049 18.8233c-.33621.3362-.33621.8813 0 1.2175l.76855.7685c.33622.3362.88127.3362 1.21748 0L22.2299 4.0759c.1353-.13528.3547-.13528.49 0l16.729 16.7348c.3362.3362.8813.3362 1.2175 0l.7685-.7685c.3363-.3361.3363-.8812.0001-1.2174Z"/><path fill="url(#t)" d="M23.4055.789303c-.2569-.256944-.5936-.385372-.9305-.385372V3.97455c.0887 0 .1774.03389.245.10148L39.449 20.8109c.3362.3362.8813.3362 1.2175 0l.7685-.7686c.3362-.3362.3362-.8813 0-1.2175L23.4055.789303Z"/><path fill="#654E48" d="M25.8466 16.7568H19.099c-.266 0-.4816-.2157-.4816-.4816v-3.3739c0-2.1293 1.7262-3.85552 3.8555-3.85552 2.1294 0 3.8556 1.72622 3.8556 3.85552v3.3739c-.0002.2659-.2159.4816-.4819.4816Z"/><path fill="#fff" d="M22.4728 8.31372c-2.5296 0-4.5875 2.05798-4.5875 4.58748v3.3738c0 .6693.5444 1.2137 1.2137 1.2137h6.7476c.6693 0 1.2138-.5444 1.2138-1.2137v-3.3738c-.0001-2.5296-2.058-4.58748-4.5876-4.58748Zm3.0981 4.19718h-2.366V9.86531c1.2467.30079 2.2038 1.35099 2.366 2.64559Zm-3.8303-2.64559v2.64559h-2.366c.1622-1.2946 1.1192-2.3448 2.366-2.64559ZM19.3493 13.975h2.3913v2.0498h-2.3913V13.975Zm3.8556 2.0498V13.975h2.3913v2.0498h-2.3913Z"/><defs><linearGradient id="a" x1="2.24454" x2="19.5359" y1="2.82017" y2="8.83587" gradientUnits="userSpaceOnUse"><stop stop-color="#E2EDF2"/><stop offset="1" stop-color="#9FC7E2"/></linearGradient><linearGradient id="b" x1="3.90807" x2="6.45404" y1="1.30358" y2="2.18961" gradientUnits="userSpaceOnUse"><stop stop-color="#E2EDF2"/><stop offset="1" stop-color="#9FC7E2"/></linearGradient><linearGradient id="c" x1="9.90193" x2="11.6786" y1="9.61321" y2="11.389" gradientUnits="userSpaceOnUse"><stop stop-color="#816965"/><stop offset="1" stop-color="#654E48"/></linearGradient><linearGradient id="d" x1="6.69761" x2="6.69761" y1="32.6047" y2="44.6569" gradientUnits="userSpaceOnUse"><stop stop-color="#FFE7A5"/><stop offset=".966" stop-color="#FFBF5C"/></linearGradient><linearGradient id="e" x1="6.59406" x2="6.59406" y1="29.4831" y2="33.8665" gradientUnits="userSpaceOnUse"><stop stop-color="#FF5D00"/><stop offset="1" stop-color="#D54003"/></linearGradient><linearGradient id="f" x1="38.2469" x2="38.2469" y1="32.6047" y2="44.6569" gradientUnits="userSpaceOnUse"><stop stop-color="#FFE7A5"/><stop offset=".966" stop-color="#FFBF5C"/></linearGradient><linearGradient id="g" x1="38.0001" x2="27.0381" y1="42.0721" y2="32.3033" gradientUnits="userSpaceOnUse"><stop stop-color="#FF5D00" stop-opacity="0"/><stop offset="1" stop-color="#D54003"/></linearGradient><linearGradient id="h" x1="38.3505" x2="38.3505" y1="29.4831" y2="33.8665" gradientUnits="userSpaceOnUse"><stop stop-color="#FF5D00"/><stop offset="1" stop-color="#D54003"/></linearGradient><linearGradient id="i" x1="22.474" x2="22.474" y1="23.8633" y2="53.4288" gradientUnits="userSpaceOnUse"><stop stop-color="#FFE7A5"/><stop offset=".966" stop-color="#FFBF5C"/><stop offset="1" stop-color="#DB9E36"/></linearGradient><linearGradient id="j" x1="19.4565" x2="11.3735" y1="14.1642" y2="6.0812" gradientUnits="userSpaceOnUse"><stop stop-color="#FF5D00" stop-opacity="0"/><stop offset="1" stop-color="#D54003"/></linearGradient><linearGradient id="k" x1="23.5251" x2="20.3623" y1="31.6309" y2="11.9989" gradientUnits="userSpaceOnUse"><stop stop-color="#FF5D00" stop-opacity="0"/><stop offset="1" stop-color="#D54003"/></linearGradient><linearGradient id="l" x1="19.2266" x2="6.62982" y1="38.361" y2="25.7641" gradientUnits="userSpaceOnUse"><stop stop-color="#FF5D00" stop-opacity="0"/><stop offset="1" stop-color="#D54003"/></linearGradient><linearGradient id="m" x1="34.6992" x2="26.6338" y1="36.2916" y2="28.2262" gradientUnits="userSpaceOnUse"><stop stop-color="#FF5D00" stop-opacity="0"/><stop offset="1" stop-color="#D54003"/></linearGradient><linearGradient id="n" x1="1.7892" x2="6.8526" y1="40.3995" y2="45.4623" gradientUnits="userSpaceOnUse"><stop stop-color="#9EB644"/><stop offset="1" stop-color="#738611"/></linearGradient><linearGradient id="o" x1="6.19716" x2="9.87028" y1="41.5131" y2="45.1863" gradientUnits="userSpaceOnUse"><stop stop-color="#9EB644"/><stop offset="1" stop-color="#738611"/></linearGradient><linearGradient id="p" x1="37.4642" x2="43.3661" y1="39.7271" y2="45.6298" gradientUnits="userSpaceOnUse"><stop stop-color="#9EB644"/><stop offset="1" stop-color="#738611"/></linearGradient><linearGradient id="q" x1="28.8878" x2="15.9746" y1="20.3066" y2="7.39343" gradientUnits="userSpaceOnUse"><stop stop-color="#FF5D00" stop-opacity="0"/><stop offset="1" stop-color="#D54003"/></linearGradient><linearGradient id="r" x1="22.4723" x2="22.4723" y1="23.4976" y2="28.1102" gradientUnits="userSpaceOnUse"><stop stop-color="#FF5D00"/><stop offset="1" stop-color="#D54003"/></linearGradient><linearGradient id="s" x1="22.4723" x2="22.4723" y1="12.6034" y2="28.2626" gradientUnits="userSpaceOnUse"><stop stop-color="#FF5D00"/><stop offset="1" stop-color="#D54003"/></linearGradient><linearGradient id="t" x1="35.9408" x2="26.476" y1="15.3836" y2="5.91901" gradientUnits="userSpaceOnUse"><stop stop-color="#FF5D00" stop-opacity="0"/><stop offset="1" stop-color="#D54003"/></linearGradient></defs></svg>