<svg xmlns="http://www.w3.org/2000/svg" width="21" height="21" fill="none"><path fill="#6C27B3" d="M10.5 21C16.299 21 21 16.299 21 10.5 21 4.70101 16.299 0 10.5 0 4.70101 0 0 4.70101 0 10.5 0 16.299 4.70101 21 10.5 21Z"/><path fill="#501A96" d="M15.369 5.452c-1.2546.15881-2.5626.15327-3.8791.02793-1.83838-.14142-4.52523-.98991-5.51514.70707-1.59026 2.71671-.80592 6.1948-.43534 9.2727l5.52628 5.5252c5.348-.284 9.634-4.5695 9.9189-9.9172L15.369 5.452Z"/><path fill="#fff" d="M12.9292 4.48999H8.07073c-1.9745 0-3.58083 1.60634-3.58083 3.58083v4.85848c0 1.9744 1.60633 3.5809 3.58087 3.5809h4.85853c1.9744 0 3.5808-1.6064 3.5808-3.5809V8.07082c0-1.97449-1.6064-3.58083-3.5809-3.58083Zm2.3717 8.43941c0 1.3098-1.0618 2.3716-2.3716 2.3716H8.07077c-1.3098 0-2.37161-1.0618-2.37161-2.3716V8.07086c0-1.30979 1.06181-2.37165 2.37161-2.37165h4.85853c1.3098 0 2.3716 1.0619 2.3716 2.37165v4.85854Z"/><path fill="#fff" d="M10.5 7.39136c-1.71422 0-3.10892 1.39469-3.10892 3.10894 0 1.714 1.3947 3.1087 3.10892 3.1087 1.7142 0 3.1088-1.3945 3.1088-3.1087 0-1.71425-1.3946-3.10894-3.1088-3.10894Zm0 5.00844c-1.04915 0-1.89969-.8504-1.89969-1.8995 0-1.04922.85054-1.89972 1.89969-1.89972 1.0491 0 1.8995.85046 1.8995 1.89972 0 1.0491-.8504 1.8995-1.8995 1.8995Z"/><path fill="#D1D1D1" d="M14.3597 7.41464c0 .41139-.3336.74497-.745.74497s-.7449-.33358-.7449-.74497c0-.41142.3335-.74496.7449-.74496.4115 0 .745.33346.745.74496Z"/><path fill="#D1D1D1" d="M12.9293 4.48999h-2.4529v1.20922h2.4529c1.3097 0 2.3716 1.0619 2.3716 2.37165v4.85854c0 1.3098-1.0619 2.3716-2.3716 2.3716h-2.4529v1.2092h2.4529c1.9744 0 3.5808-1.6064 3.5808-3.5809V8.07082c0-1.97449-1.6064-3.58083-3.5808-3.58083Z"/><path fill="#D1D1D1" d="M10.5 7.39136c-.0079 0-.0156.00057-.0236.00057v1.20922c.0079-.00008.0157-.00057.0236-.00057 1.0491 0 1.8995.85046 1.8995 1.89972 0 1.0491-.8503 1.8995-1.8995 1.8995-.0079 0-.0157-.0005-.0236-.0006v1.2093c.008 0 .0157.0005.0236.0005 1.7142 0 3.1088-1.3946 3.1088-3.1087 0-1.71425-1.3946-3.10894-3.1088-3.10894Z"/></svg>