<svg xmlns="http://www.w3.org/2000/svg" width="21" height="21" fill="none"><path fill="#D22215" d="M10.5 21C16.299 21 21 16.299 21 10.5 21 4.70101 16.299 0 10.5 0 4.70101 0 0 4.70101 0 10.5 0 16.299 4.70101 21 10.5 21Z"/><path fill="#A81411" d="M15.7851 6.98657c-.3148.0961-.6432.17867-.972.2609-2.3333.49494-5.44444-.84849-6.78787 1.34343-1.12042 1.7429-1.47418 3.9239-2.74874 5.4823l6.80791 6.8079c4.531-.6858 8.1118-4.2671 8.7969-8.7983l-5.0962-5.09623Z"/><path fill="#fff" d="M14.013 6.24805H6.98706c-1.37845 0-2.49588 1.11747-2.49588 2.49588v3.51227c0 1.3784 1.11747 2.4959 2.49588 2.4959H14.013c1.3784 0 2.4958-1.1175 2.4958-2.4959V8.74393c0-1.37841-1.1174-2.49588-2.4958-2.49588Zm-1.688 4.42285-3.28621 1.5673c-.08761.0418-.1888-.022-.1888-.119V8.88662c0-.09843.10385-.16221.19155-.11771l3.28616 1.66529c.0979.0495.0961.1896-.0027.2367Z"/><path fill="#D1D1D1" d="M14.0129 6.24805h-3.5836v3.22403l1.8985.96202c.0978.0495.096.1897-.0028.2368l-1.8957.9041v3.1771h3.5836c1.3785 0 2.4959-1.1175 2.4959-2.4959V8.74393c0-1.37841-1.1174-2.49588-2.4959-2.49588Z"/></svg>